<svg width="18" height="18" viewBox="0 0 18 18" fill="currentColor" xmlns="http://www.w3.org/2000/svg">
<path fill-rule="evenodd" clip-rule="evenodd" d="M9.52713 0.79732C9.18502 0.683282 8.81515 0.683283 8.47304 0.79732L1.80637 3.01954C1.1258 3.2464 0.666748 3.8833 0.666748 4.60068V6.50005C0.666748 7.42052 1.41294 8.16671 2.33341 8.16671H3.16675V12.3334H2.33342C1.41294 12.3334 0.666748 13.0796 0.666748 14V15.6667C0.666748 16.5872 1.41294 17.3334 2.33341 17.3334H15.6667C16.5872 17.3334 17.3334 16.5872 17.3334 15.6667V14C17.3334 13.0796 16.5872 12.3334 15.6667 12.3334H14.8334V8.16671H15.6667C16.5872 8.16671 17.3334 7.42052 17.3334 6.50005V4.60068C17.3334 3.8833 16.8744 3.2464 16.1938 3.01954L9.52713 0.79732ZM13.1667 12.3334V8.16671H11.5001V12.3334H13.1667ZM9.83342 12.3334V8.16671H8.16675V12.3334H9.83342ZM6.50008 12.3334V8.16671H4.83341V12.3334H6.50008ZM2.33341 14V15.6667H15.6667V14H2.33341ZM2.33341 6.50005L2.33341 4.60068L9.00008 2.37846L15.6667 4.60068V6.50005H2.33341Z" fill="currentColor"/>
</svg>
