<svg width="39" height="39" viewBox="0 0 39 39" fill="none" xmlns="http://www.w3.org/2000/svg">
<rect x="0.805908" y="0.208252" width="38.1448" height="38.1448" rx="10.0381" fill="#337CFB"/>
<path d="M13.7576 23.7976H12.9283C11.7789 23.7976 10.8438 24.6983 10.8438 25.8052V27.267C10.8438 27.5685 11.0975 27.8128 11.4106 27.8128H13.8552C13.7921 27.642 13.7576 27.4583 13.7576 27.267V23.7976Z" fill="white"/>
<path d="M17.773 21.7903H16.9439C15.7944 21.7903 14.8591 22.5721 14.8591 23.5329V27.3393C14.8591 27.601 15.1129 27.8131 15.426 27.8131H17.8706C17.8077 27.6648 17.773 27.5054 17.773 27.3393V21.7903Z" fill="white"/>
<path d="M28.8155 15.7701L25.2934 10.9506C25.2003 10.8234 25.0533 10.7483 24.897 10.7483C24.7407 10.7483 24.5936 10.8234 24.5006 10.9506L20.9787 15.7701C20.8679 15.9218 20.8508 16.124 20.9345 16.2926C21.0184 16.4612 21.1887 16.5677 21.3751 16.5677H22.6428V27.3131C22.6428 27.5893 22.8636 27.8131 23.1361 27.8131H26.658C26.9304 27.8131 27.1512 27.5893 27.1512 27.3131V16.5677H28.4191C28.6053 16.5677 28.7758 16.4612 28.8595 16.2926C28.9434 16.124 28.9263 15.9218 28.8155 15.7701Z" fill="white"/>
<path d="M21.7885 18.7788H20.9592C19.8098 18.7788 18.8745 19.6038 18.8745 20.6178V27.313C18.8745 27.5892 19.1284 27.8131 19.4413 27.8131H21.8859C21.8231 27.6566 21.7885 27.4883 21.7885 27.313V18.7788Z" fill="white"/>
</svg>
