<svg width="40" height="39" viewBox="0 0 40 39" fill="none" xmlns="http://www.w3.org/2000/svg">
<rect x="0.980469" y="0.708252" width="38.1448" height="38.1448" rx="10.0381" fill="#337CFB"/>
<path d="M24.7909 15.6076L12.6345 17.2293C12.1224 17.2976 11.6984 17.6425 11.5279 18.1292C11.3574 18.6159 11.4749 19.1464 11.8345 19.5136L14.6743 22.4139L18.9536 19.9432C19.1505 19.8295 19.4017 19.8959 19.5147 20.0916C19.6276 20.2872 19.5596 20.5379 19.3626 20.6516L15.0833 23.1223L16.175 27.0318C16.3133 27.5268 16.714 27.8938 17.2207 27.9895C17.7285 28.0854 18.2387 27.8896 18.5534 27.481L26.0361 17.7642C26.3767 17.3218 26.4159 16.7483 26.1383 16.2674C25.8607 15.7866 25.3444 15.5337 24.7909 15.6076Z" fill="white"/>
</svg>
