<svg width="39" height="39" viewBox="0 0 39 39" fill="none" xmlns="http://www.w3.org/2000/svg">
<rect x="0.805908" y="0.208252" width="38.1448" height="38.1448" rx="10.0381" fill="#337CFB"/>
<path fill-rule="evenodd" clip-rule="evenodd" d="M10.2586 17.7749H29.4983C29.7493 17.7749 29.9166 17.9355 29.9165 18.1764V23.7978C29.9165 24.922 28.9964 25.8054 27.8253 25.8054H11.9316C10.7605 25.8054 9.84033 24.9221 9.84033 23.7978V18.1764C9.84033 17.9355 10.0076 17.7749 10.2586 17.7749ZM16.1143 20.9871H12.7683C12.5173 20.9871 12.35 21.1477 12.35 21.3886C12.35 21.6295 12.5173 21.7901 12.7683 21.7901H16.1143C16.3653 21.7901 16.5326 21.6295 16.5326 21.3886C16.5326 21.1477 16.3653 20.9871 16.1143 20.9871ZM18.6238 23.3964H12.7683C12.5173 23.3964 12.35 23.2358 12.35 22.9949C12.35 22.7539 12.5173 22.5933 12.7683 22.5933H18.6238C18.8748 22.5933 19.0421 22.7539 19.0421 22.9949C19.0421 23.2358 18.8748 23.3964 18.6238 23.3964ZM24.8976 23.1553C25.1485 23.3159 25.3995 23.3962 25.7341 23.3962C26.6542 23.3962 27.4071 22.6734 27.4071 21.7901C27.4071 20.9067 26.6542 20.1839 25.7341 20.1839C25.3995 20.1839 25.1485 20.2642 24.8976 20.4249C24.6466 20.2642 24.3957 20.1839 24.0611 20.1839C23.1409 20.1839 22.388 20.9067 22.388 21.7901C22.388 22.6734 23.1409 23.3962 24.0611 23.3962C24.3957 23.3962 24.6466 23.3159 24.8976 23.1553Z" fill="white"/>
<path d="M27.8252 12.7559H11.9316C10.7605 12.7559 9.84033 13.8601 9.84033 15.2654V16.2692C9.84033 16.5703 10.0076 16.7711 10.2586 16.7711H29.4983C29.7492 16.7711 29.9165 16.5703 29.9165 16.2692V15.2654C29.9165 13.8601 28.9963 12.7559 27.8252 12.7559Z" fill="white"/>
</svg>
