<svg width="12" height="9" viewBox="0 0 12 9" fill="currentColor" xmlns="http://www.w3.org/2000/svg">
<path d="M2.31319 5.97983C2.11793 6.17509 2.11793 6.49167 2.31319 6.68693C2.50846 6.88219 2.82504 6.88219 3.0203 6.68693L4.70063 5.0066L5.35048 5.53731C5.55468 5.70407 5.85327 5.68363 6.03284 5.4906L7.66817 3.73262L8.30198 4.40868C8.49084 4.61014 8.80726 4.62035 9.00872 4.43148C9.21017 4.24262 9.22038 3.9262 9.03152 3.72474L8.03152 2.65808C7.93676 2.557 7.80432 2.49978 7.66578 2.50005C7.52724 2.50032 7.39502 2.55806 7.30065 2.65949L5.61994 4.46627L4.98302 3.94611C4.78419 3.78374 4.49471 3.79831 4.31319 3.97983L2.31319 5.97983Z" fill="currentColor"/>
<path fill-rule="evenodd" clip-rule="evenodd" d="M2.16675 0C1.06218 0 0.166748 0.895432 0.166748 2V7C0.166748 8.10457 1.06218 9 2.16675 9H9.16675C10.2713 9 11.1667 8.10457 11.1667 7V2C11.1667 0.895431 10.2713 0 9.16675 0H2.16675ZM1.16675 2C1.16675 1.44772 1.61446 1 2.16675 1H9.16675C9.71903 1 10.1667 1.44772 10.1667 2V7C10.1667 7.55228 9.71903 8 9.16675 8H2.16675C1.61446 8 1.16675 7.55228 1.16675 7V2Z" fill="currentColor"/>
</svg>
