<svg width="20" height="16" viewBox="0 0 20 16" fill="currentColor" xmlns="http://www.w3.org/2000/svg">
<path d="M4.24247 3.34725C3.78398 3.30714 3.37979 3.6463 3.33968 4.10478C3.29957 4.56327 3.63872 4.96746 4.09721 5.00758L5.75753 5.15283C6.21602 5.19295 6.62021 4.85379 6.66033 4.3953C6.70044 3.93682 6.36128 3.53262 5.90279 3.49251L4.24247 3.34725Z" fill="currentColor"/>
<path d="M13.3397 4.93812C13.3798 4.47963 13.784 4.14047 14.2425 4.18058L15.9028 4.32584C16.3613 4.36596 16.7004 4.77015 16.6603 5.22864C16.6202 5.68712 16.216 6.02628 15.7575 5.98617L14.0972 5.84091C13.6387 5.8008 13.2996 5.3966 13.3397 4.93812Z" fill="currentColor"/>
<path d="M4.24247 10.5032C3.78398 10.4631 3.37979 10.8023 3.33968 11.2607C3.29957 11.7192 3.63872 12.1234 4.09721 12.1635L5.75753 12.3088C6.21602 12.3489 6.62021 12.0098 6.66033 11.5513C6.70044 11.0928 6.36128 10.6886 5.90279 10.6485L4.24247 10.5032Z" fill="currentColor"/>
<path d="M13.3397 12.4381C13.3798 11.9796 13.784 11.6405 14.2425 11.6806L15.9028 11.8258C16.3613 11.866 16.7004 12.2701 16.6603 12.7286C16.6202 13.1871 16.216 13.5263 15.7575 13.4862L14.0972 13.3409C13.6387 13.3008 13.2996 12.8966 13.3397 12.4381Z" fill="currentColor"/>
<path fill-rule="evenodd" clip-rule="evenodd" d="M9.99992 5.50005C11.3806 5.50005 12.4999 6.61933 12.4999 8.00005C12.4999 9.38076 11.3806 10.5 9.99992 10.5C8.61921 10.5 7.49992 9.38076 7.49992 8.00005C7.49992 6.61933 8.61921 5.50005 9.99992 5.50005ZM10.8333 8.00005C10.8333 7.53981 10.4602 7.16671 9.99992 7.16671C9.53968 7.16671 9.16658 7.53981 9.16658 8.00005C9.16658 8.46028 9.53968 8.83338 9.99992 8.83338C10.4602 8.83338 10.8333 8.46028 10.8333 8.00005Z" fill="currentColor"/>
<path fill-rule="evenodd" clip-rule="evenodd" d="M4.37019 0.701374C2.4425 0.535913 0.833252 2.06328 0.833252 3.97389V10.6331C0.833252 12.404 2.21239 13.8588 3.95679 14.0056C4.6718 14.0657 5.54891 14.1445 6.58528 14.2461C6.77105 14.2643 7.18412 14.3486 7.78132 14.4867C8.17397 14.5775 8.61596 14.6841 9.08029 14.7962C9.29919 14.8491 9.52377 14.9033 9.74976 14.9574C10.4491 15.1249 11.1642 15.2922 11.7796 15.4182C12.3689 15.5388 12.9463 15.639 13.3297 15.6406C14.2828 15.6446 15.2149 15.6266 16.0125 15.6023C17.7968 15.5479 19.1666 14.0738 19.1666 12.3177V5.66072C19.1666 3.7337 17.547 2.22744 15.6529 2.27863C14.9424 2.29784 14.1459 2.31071 13.3368 2.30729C13.1445 2.30647 12.7259 2.24394 12.1138 2.11868C11.5278 1.99877 10.8361 1.83716 10.138 1.66994C9.91934 1.61756 9.69953 1.5645 9.48263 1.51214L9.48179 1.51194C9.01283 1.39874 8.55738 1.2888 8.15683 1.19618C7.59001 1.0651 7.06316 0.951596 6.74789 0.920688C5.83212 0.830906 5.03891 0.758772 4.37019 0.701374ZM2.49992 3.97389C2.49992 3.01574 3.2971 2.28206 4.22766 2.36193C4.88973 2.41876 5.67624 2.49028 6.58528 2.5794C6.77105 2.59762 7.18412 2.68189 7.78132 2.81999C8.17403 2.9108 8.6161 3.01752 9.08052 3.12962C9.29957 3.1825 9.5236 3.23658 9.74976 3.29075C10.4491 3.45828 11.1642 3.62558 11.7796 3.75151C12.3689 3.87209 12.9463 3.97232 13.3297 3.97394C14.1602 3.97745 14.9747 3.96424 15.698 3.94469C16.6867 3.91797 17.4999 4.70396 17.4999 5.66072V12.3177C17.4999 13.2022 16.8169 13.9103 15.9617 13.9364C15.1775 13.9603 14.2655 13.9779 13.3368 13.974C13.1445 13.9731 12.7259 13.9106 12.1138 13.7853C11.5278 13.6654 10.8361 13.5038 10.138 13.3366C9.91911 13.2842 9.69907 13.2311 9.48195 13.1786C9.01291 13.0654 8.55744 12.9555 8.15683 12.8628C7.59001 12.7318 7.06316 12.6183 6.74789 12.5874C5.70385 12.485 4.81911 12.4056 4.09653 12.3448C3.19497 12.2689 2.49992 11.5174 2.49992 10.6331V3.97389Z" fill="currentColor"/>
</svg>
