<svg width="20" height="18" viewBox="0 0 20 18" fill="currentColor" xmlns="http://www.w3.org/2000/svg">
<path fill-rule="evenodd" clip-rule="evenodd" d="M11.912 0.987571C10.7643 0.184157 9.23666 0.184155 8.08893 0.987569L2.35761 4.99949C1.3921 5.67535 0.855245 6.81083 0.945636 7.98592L1.53315 15.6236C1.64396 17.0641 2.94913 18.1111 4.37934 17.9068L7.02069 17.5294C8.25231 17.3535 9.16713 16.2987 9.16713 15.0545V14C9.16713 13.5398 9.54023 13.1667 10.0005 13.1667C10.4607 13.1667 10.8338 13.5398 10.8338 14V15.0545C10.8338 16.2987 11.7486 17.3535 12.9802 17.5294L15.6216 17.9068C17.0518 18.1111 18.357 17.0641 18.4678 15.6236L19.0553 7.98592C19.1457 6.81083 18.6088 5.67535 17.6433 4.99949L11.912 0.987571ZM9.0447 2.35296C9.61856 1.95125 10.3824 1.95125 10.9562 2.35296L16.6876 6.36488C17.1703 6.70281 17.4387 7.27055 17.3935 7.85809L16.806 15.4958C16.7691 15.976 16.334 16.3249 15.8573 16.2568L13.2159 15.8795C12.8054 15.8209 12.5005 15.4693 12.5005 15.0545V14C12.5005 12.6193 11.3812 11.5 10.0005 11.5C8.61976 11.5 7.50047 12.6193 7.50047 14V15.0545C7.50047 15.4693 7.19553 15.8209 6.78499 15.8795L4.14364 16.2568C3.6669 16.3249 3.23184 15.976 3.19491 15.4958L2.60739 7.85809C2.5622 7.27055 2.83062 6.70281 3.31338 6.36488L9.0447 2.35296Z" fill="currentColor"/>
</svg>
