<svg width="19" height="18" viewBox="0 0 19 18" fill="currentColor" xmlns="http://www.w3.org/2000/svg">
<path d="M5.24984 2.33341C5.71008 2.33341 6.08317 1.96032 6.08317 1.50008C6.08317 1.03984 5.71008 0.666748 5.24984 0.666748H3.99984C2.15889 0.666748 0.666504 2.15913 0.666504 4.00008V14.0001C0.666504 15.841 2.15889 17.3334 3.99984 17.3334H5.24984C5.71007 17.3334 6.08317 16.9603 6.08317 16.5001C6.08317 16.0398 5.71007 15.6667 5.24984 15.6667H3.99984C3.07936 15.6667 2.33317 14.9206 2.33317 14.0001L2.33317 4.00008C2.33317 3.07961 3.07936 2.33341 3.99984 2.33341H5.24984Z" fill="white"/>
<path d="M17.9224 9.58934C18.2479 9.2639 18.2479 8.73626 17.9224 8.41083L14.5891 5.07749C14.2637 4.75206 13.736 4.75206 13.4106 5.07749C13.0851 5.40293 13.0851 5.93057 13.4106 6.256L15.3213 8.16675L5.6665 8.16675C5.20627 8.16675 4.83317 8.53984 4.83317 9.00008C4.83317 9.46032 5.20627 9.83341 5.6665 9.83341L15.3213 9.83342L13.4106 11.7442C13.0851 12.0696 13.0851 12.5972 13.4106 12.9227C13.736 13.2481 14.2637 13.2481 14.5891 12.9227L17.9224 9.58934Z" fill="white"/>
</svg>
