<svg width="18" height="16" viewBox="0 0 18 16" fill="currentColor" xmlns="http://www.w3.org/2000/svg">
<path fill-rule="evenodd" clip-rule="evenodd" d="M3.35405 0.5C1.8699 0.5 0.666748 1.70314 0.666748 3.1873V12.1667C0.666748 14.0076 2.15913 15.5 4.00008 15.5H14.0001C15.841 15.5 17.3334 14.0076 17.3334 12.1667V6.7963C17.3334 4.9557 15.8422 3.46296 14.0009 3.46296H11.4081C11.3749 3.41405 11.3366 3.35183 11.2932 3.27427C11.1758 3.06429 11.0616 2.81759 10.9306 2.53459C10.8995 2.46744 10.8675 2.39822 10.8342 2.32699C10.6749 1.98558 10.4819 1.58459 10.2583 1.26646C10.0728 1.00239 9.66748 0.5 9.01155 0.5H3.35405ZM9.40646 3.2098C9.44443 3.29197 9.48374 3.37702 9.52409 3.46296H2.33341V3.1873C2.33341 2.62362 2.79037 2.16667 3.35405 2.16667H8.85171C8.86408 2.18236 8.87838 2.20148 8.89461 2.22458C9.02178 2.40559 9.15864 2.67764 9.32395 3.03184C9.35062 3.08899 9.37818 3.14863 9.40646 3.2098ZM4.00008 13.8333C3.07961 13.8333 2.33341 13.0871 2.33341 12.1667V5.12963H11.0652C11.0674 5.12968 11.0696 5.12971 11.0718 5.12974C11.0813 5.12987 11.0909 5.12983 11.1004 5.12963H14.0009C14.921 5.12963 15.6667 5.87547 15.6667 6.7963V7.16667H14.0001C12.6194 7.16667 11.5001 8.28596 11.5001 9.66667C11.5001 11.0474 12.6194 12.1667 14.0001 12.1667H15.6667C15.6667 13.0871 14.9206 13.8333 14.0001 13.8333H4.00008ZM13.1667 9.66667C13.1667 9.20643 13.5398 8.83333 14.0001 8.83333H15.6667V10.5H14.0001C13.5398 10.5 13.1667 10.1269 13.1667 9.66667ZM8.7929 2.10269C8.79291 2.10227 8.79636 2.10471 8.8032 2.1113C8.79631 2.10641 8.79289 2.10312 8.7929 2.10269Z" fill="currentColor"/>
</svg>
