<svg width="18" height="25" viewBox="0 0 18 25" fill="none" xmlns="http://www.w3.org/2000/svg">
<path d="M10.1669 1.49967C10.1669 0.855342 9.64456 0.333008 9.00023 0.333008C8.3559 0.333008 7.83357 0.855342 7.83357 1.49967V3.24967C7.83357 3.28203 7.83488 3.31408 7.83747 3.34577C4.52488 3.89937 2.00023 6.77854 2.00023 10.2484V14.9163C2.00023 15.4999 1.52177 16.5119 0.99817 17.4446C0.261393 18.7571 0.396327 20.3395 1.80295 20.8751C3.21768 21.4137 5.4807 21.9163 9.00023 21.9163C12.5198 21.9163 14.7828 21.4137 16.1975 20.8751C17.6041 20.3395 17.7391 18.7571 17.0023 17.4446C16.4787 16.5119 16.0002 15.4999 16.0002 14.9163V10.249C16.0002 6.77909 13.4756 3.89948 10.163 3.34578C10.1656 3.31409 10.1669 3.28204 10.1669 3.24967V1.49967Z" fill="#667185"/>
<path d="M5.40702 22.8784C5.45057 22.9164 5.50316 22.9607 5.56441 23.0097C5.73975 23.15 5.99025 23.3318 6.30684 23.5127C6.93517 23.8717 7.86418 24.2497 9.00025 24.2497C10.1363 24.2497 11.0653 23.8717 11.6937 23.5127C12.0103 23.3318 12.2608 23.15 12.4361 23.0097C12.4973 22.9607 12.5499 22.9164 12.5935 22.8784C11.5734 23.0054 10.3839 23.0831 9.00025 23.0831C7.61657 23.0831 6.42709 23.0054 5.40702 22.8784Z" fill="#667185"/>
</svg>
