<svg width="20" height="19" viewBox="0 0 20 19" fill="currentColor" xmlns="http://www.w3.org/2000/svg">
<path fill-rule="evenodd" clip-rule="evenodd" d="M11.4151 0.753959L10.4166 1.6617L9.41807 0.753959C7.85602 -0.666089 5.6724 0.609584 5.6089 2.33337H3.33325C1.95254 2.33337 0.833252 3.45266 0.833252 4.83337V6.40744C0.833252 7.07755 1.20791 7.66015 1.75918 7.9572V14.8334C1.75918 16.6743 3.25156 18.1667 5.09251 18.1667H14.9073C16.7483 18.1667 18.2407 16.6743 18.2407 14.8334V7.9572C18.7919 7.66015 19.1666 7.07755 19.1666 6.40744V4.83337C19.1666 3.45266 18.0473 2.33337 16.6666 2.33337H15.2243C15.1608 0.609584 12.9771 -0.666089 11.4151 0.753959ZM6.68186 4.00004C6.67219 4.0002 6.66254 4.0002 6.65289 4.00004H3.33325C2.87301 4.00004 2.49992 4.37313 2.49992 4.83337V6.40744C2.49992 6.45858 2.54137 6.50004 2.59251 6.50004H17.4073C17.4585 6.50004 17.4999 6.45858 17.4999 6.40744V4.83337C17.4999 4.37313 17.1268 4.00004 16.6666 4.00004H14.1803C14.1706 4.0002 14.161 4.0002 14.1513 4.00004H6.68186ZM11.2499 8.1667H8.74992V10.4063C8.74992 10.435 8.75688 10.4485 8.76215 10.4565C8.76941 10.4675 8.7827 10.4805 8.80254 10.49C8.82238 10.4996 8.84081 10.5018 8.85396 10.5006C8.86349 10.4997 8.87838 10.4967 8.90076 10.4788C9.54337 9.96476 10.4565 9.96476 11.0991 10.4788C11.1215 10.4967 11.1363 10.4997 11.1459 10.5006C11.159 10.5018 11.1775 10.4996 11.1973 10.49C11.2171 10.4805 11.2304 10.4675 11.2377 10.4565C11.243 10.4485 11.2499 10.435 11.2499 10.4063V8.1667ZM7.08325 8.1667V10.4063C7.08325 11.8817 8.78986 12.7019 9.94192 11.7803C9.97583 11.7532 10.024 11.7532 10.0579 11.7803C11.21 12.7019 12.9166 11.8817 12.9166 10.4063V8.1667H16.574V14.8334C16.574 15.7538 15.8278 16.5 14.9073 16.5H5.09251C4.17204 16.5 3.42584 15.7538 3.42584 14.8334V8.1667H7.08325ZM8.29695 1.98719L8.67775 2.33337H7.29776C7.36781 1.91541 7.90604 1.63182 8.29695 1.98719ZM13.5354 2.33337C13.4654 1.91541 12.9271 1.63182 12.5362 1.98719L12.1554 2.33337H13.5354Z" fill="currentColor"/>
</svg>
