<svg width="18" height="20" viewBox="0 0 18 20" fill="currentColor" xmlns="http://www.w3.org/2000/svg">
<path d="M7.97201 8.97707C8.37881 8.57028 8.37881 7.91073 7.97201 7.50393C7.56521 7.09714 6.90567 7.09714 6.49887 7.50393C6.09207 7.91073 6.09207 8.57028 6.49887 8.97707C6.90567 9.38387 7.56521 9.38387 7.97201 8.97707Z" fill="currentColor"/>
<path d="M11.5076 11.0395C11.9144 11.4463 11.9144 12.1058 11.5076 12.5126C11.1008 12.9194 10.4412 12.9194 10.0344 12.5126C9.62764 12.1058 9.62764 11.4463 10.0344 11.0395C10.4412 10.6327 11.1008 10.6327 11.5076 11.0395Z" fill="currentColor"/>
<path d="M6.64318 11.1785C6.31774 11.5039 6.31774 12.0315 6.64318 12.357C6.96862 12.6824 7.49625 12.6824 7.82169 12.357L11.3572 8.82145C11.6827 8.49601 11.6827 7.96837 11.3572 7.64294C11.0318 7.3175 10.5041 7.3175 10.1787 7.64294L6.64318 11.1785Z" fill="currentColor"/>
<path fill-rule="evenodd" clip-rule="evenodd" d="M11.0851 1.69069C9.92263 0.566155 8.07781 0.566155 6.91537 1.69069C6.62012 1.97632 6.20959 2.10971 5.80284 2.05218C4.20142 1.82567 2.70893 2.91003 2.42949 4.50306C2.35851 4.90768 2.10479 5.25691 1.7419 5.44944C0.313191 6.20748 -0.256889 7.96201 0.4534 9.41505C0.633809 9.78411 0.633809 10.2158 0.4534 10.5848C-0.256889 12.0379 0.313191 13.7924 1.7419 14.5504C2.10479 14.743 2.35851 15.0922 2.42949 15.4968C2.70893 17.0899 4.20142 18.1742 5.80284 17.9477C6.20959 17.8902 6.62012 18.0236 6.91537 18.3092C8.07781 19.4337 9.92263 19.4337 11.0851 18.3092C11.3803 18.0236 11.7908 17.8902 12.1976 17.9477C13.799 18.1742 15.2915 17.0899 15.5709 15.4968C15.6419 15.0922 15.8956 14.743 16.2585 14.5504C17.6872 13.7924 18.2573 12.0379 17.547 10.5848C17.3666 10.2158 17.3666 9.78411 17.547 9.41505C18.2573 7.96201 17.6872 6.20748 16.2585 5.44944C15.8956 5.25691 15.6419 4.90768 15.5709 4.50306C15.2915 2.91003 13.799 1.82567 12.1976 2.05218C11.7908 2.10971 11.3803 1.97632 11.0851 1.69069ZM8.0742 2.88857C8.59051 2.38909 9.40992 2.38909 9.92623 2.88857C10.591 3.53163 11.5153 3.83195 12.431 3.70242C13.1423 3.60181 13.8052 4.08345 13.9293 4.79102C14.0891 5.70199 14.6604 6.48823 15.4774 6.92171C16.112 7.25841 16.3652 8.03771 16.0497 8.6831C15.6435 9.51402 15.6435 10.4859 16.0497 11.3168C16.3652 11.9622 16.112 12.7415 15.4774 13.0782C14.6604 13.5117 14.0891 14.2979 13.9293 15.2089C13.8052 15.9164 13.1423 16.3981 12.431 16.2975C11.5153 16.1679 10.591 16.4683 9.92623 17.1113C9.40992 17.6108 8.59051 17.6108 8.0742 17.1113C7.40947 16.4683 6.48518 16.1679 5.56942 16.2975C4.85812 16.3981 4.19521 15.9164 4.07109 15.2089C3.9113 14.2979 3.34005 13.5117 2.52305 13.0782C1.88847 12.7415 1.63526 11.9622 1.95074 11.3168C2.35692 10.4859 2.35692 9.51402 1.95074 8.6831C1.63526 8.03771 1.88847 7.25841 2.52305 6.92171C3.34005 6.48823 3.9113 5.70199 4.07109 4.79102C4.19521 4.08345 4.85812 3.60181 5.56942 3.70242C6.48518 3.83195 7.40947 3.53163 8.0742 2.88857Z" fill="currentColor"/>
</svg>
