<svg width="18" height="17" viewBox="0 0 18 17" fill="currentColor" xmlns="http://www.w3.org/2000/svg">
<path fill-rule="evenodd" clip-rule="evenodd" d="M8.99996 0.5C4.39759 0.5 0.666626 4.23096 0.666626 8.83333V11.3201C0.666463 11.3296 0.666463 11.3391 0.666626 11.3486V13.3431C0.666626 14.5343 1.63229 15.5 2.82349 15.5C4.01469 15.5 4.98035 14.5343 4.98035 13.3431V11.5422C4.98035 9.92409 3.55131 9.1746 2.33329 9.42315V8.83333C2.33329 5.15144 5.31806 2.16667 8.99996 2.16667C12.6819 2.16667 15.6666 5.15144 15.6666 8.83333V9.41433C14.449 9.16546 13.0196 9.91264 13.0196 11.5324V13.3431C13.0196 13.7402 13.1269 14.1122 13.314 14.4317C12.5764 14.7984 11.5699 15.0834 10.25 15.0834C9.78972 15.0834 9.41663 15.4565 9.41663 15.9167C9.41663 16.3769 9.78972 16.75 10.25 16.75C12.2865 16.75 13.7962 16.1755 14.8303 15.4724C14.943 15.4906 15.0586 15.5 15.1764 15.5C16.3676 15.5 17.3333 14.5343 17.3333 13.3431V11.3482C17.3334 11.339 17.3334 11.3298 17.3333 11.3206V8.83333C17.3333 4.23096 13.6023 0.5 8.99996 0.5ZM15.0432 13.815C15.0856 13.827 15.1303 13.8333 15.1764 13.8333C15.4472 13.8333 15.6666 13.6139 15.6666 13.3431V11.4069C15.6324 11.2496 15.5615 11.1698 15.4968 11.1234C15.4126 11.063 15.2882 11.0255 15.1466 11.0361C15.005 11.0468 14.8876 11.1025 14.8134 11.1748C14.7504 11.2361 14.6862 11.3386 14.6862 11.5324V13.3431C14.6862 13.5258 14.7862 13.6852 14.9344 13.7695C14.9716 13.782 15.0079 13.7972 15.0432 13.815ZM2.33329 13.3431V11.4106C2.36877 11.2559 2.43951 11.1771 2.50431 11.1311C2.58894 11.0711 2.71331 11.0342 2.85446 11.0453C2.99561 11.0565 3.11266 11.1124 3.18682 11.185C3.24982 11.2466 3.31369 11.3493 3.31369 11.5422V13.3431C3.31369 13.6139 3.09422 13.8333 2.82349 13.8333C2.55276 13.8333 2.33329 13.6139 2.33329 13.3431Z" fill="currentColor"/>
</svg>
