<svg width="72" height="28" viewBox="0 0 72 28" fill="none" xmlns="http://www.w3.org/2000/svg">
<path d="M0.431818 4.79403V0.818181H21.321V4.79403H13.2287V27H8.52415V4.79403H0.431818ZM41.7276 9.17898C41.5146 8.48864 41.2205 7.87074 40.8455 7.32528C40.479 6.77131 40.0359 6.29829 39.516 5.90625C39.0046 5.5142 38.4165 5.22017 37.7518 5.02415C37.087 4.8196 36.3626 4.71733 35.5785 4.71733C34.1722 4.71733 32.9194 5.07102 31.82 5.77841C30.7205 6.48579 29.8555 7.52557 29.2248 8.89773C28.6026 10.2614 28.2915 11.9233 28.2915 13.8835C28.2915 15.8608 28.6026 17.5355 29.2248 18.9077C29.8469 20.2798 30.712 21.3239 31.82 22.0398C32.9279 22.7472 34.2148 23.1009 35.6808 23.1009C37.0103 23.1009 38.1609 22.8452 39.1325 22.3338C40.1126 21.8224 40.8668 21.098 41.3952 20.1605C41.9237 19.2145 42.1879 18.1065 42.1879 16.8366L43.2617 17.0028H36.1538V13.2955H46.7773V16.4403C46.7773 18.6818 46.3001 20.6207 45.3455 22.2571C44.391 23.8935 43.0785 25.1548 41.408 26.0412C39.7376 26.919 37.82 27.358 35.6552 27.358C33.2433 27.358 31.1254 26.8168 29.3015 25.7344C27.4862 24.6435 26.0671 23.0966 25.0444 21.0938C24.0302 19.0824 23.5231 16.696 23.5231 13.9347C23.5231 11.821 23.8214 9.93324 24.418 8.27131C25.0231 6.60938 25.8668 5.19886 26.9492 4.03977C28.0316 2.87216 29.3015 1.98579 30.7589 1.38068C32.2163 0.767045 33.8015 0.460226 35.5146 0.460226C36.9634 0.460226 38.3143 0.673295 39.5671 1.09943C40.82 1.51704 41.9322 2.11364 42.9038 2.8892C43.8839 3.66477 44.6893 4.58523 45.32 5.65057C45.9506 6.71591 46.364 7.89205 46.56 9.17898H41.7276ZM51.3636 27V0.818181H61.1818C63.1932 0.818181 64.8807 1.16761 66.2443 1.86648C67.6165 2.56534 68.652 3.54545 69.3509 4.80682C70.0582 6.05966 70.4119 7.52131 70.4119 9.19176C70.4119 10.8707 70.054 12.3281 69.3381 13.5639C68.6307 14.7912 67.5866 15.7415 66.206 16.4148C64.8253 17.0795 63.1293 17.4119 61.1179 17.4119H54.125V13.4744H60.4787C61.6548 13.4744 62.6179 13.3125 63.3679 12.9886C64.1179 12.6562 64.6719 12.1747 65.0298 11.544C65.3963 10.9048 65.5795 10.1207 65.5795 9.19176C65.5795 8.26278 65.3963 7.47017 65.0298 6.81392C64.6634 6.14915 64.1051 5.64631 63.3551 5.3054C62.6051 4.95597 61.6378 4.78125 60.4531 4.78125H56.1065V27H51.3636ZM64.8892 15.1364L71.3707 27H66.0781L59.7116 15.1364H64.8892Z" fill="#30AFFF"/>
</svg>
