<svg width="16" height="19" viewBox="0 0 16 19" fill="currentColor" xmlns="http://www.w3.org/2000/svg">
<path d="M4.66667 5.00004C4.20643 5.00004 3.83333 5.37314 3.83333 5.83337C3.83333 6.29361 4.20643 6.66671 4.66667 6.66671H11.3333C11.7936 6.66671 12.1667 6.29361 12.1667 5.83337C12.1667 5.37314 11.7936 5.00004 11.3333 5.00004H4.66667Z" fill="currentColor"/>
<path d="M3.83333 10C3.83333 9.5398 4.20643 9.16671 4.66667 9.16671H11.3333C11.7936 9.16671 12.1667 9.5398 12.1667 10C12.1667 10.4603 11.7936 10.8334 11.3333 10.8334H4.66667C4.20643 10.8334 3.83333 10.4603 3.83333 10Z" fill="currentColor"/>
<path d="M4.66667 13.3334C4.20643 13.3334 3.83333 13.7065 3.83333 14.1667C3.83333 14.6269 4.20643 15 4.66667 15H6.88889C7.34913 15 7.72222 14.6269 7.72222 14.1667C7.72222 13.7065 7.34913 13.3334 6.88889 13.3334H4.66667Z" fill="currentColor"/>
<path d="M9.11111 13.3334C8.65087 13.3334 8.27778 13.7065 8.27778 14.1667C8.27778 14.6269 8.65087 15 9.11111 15H11.3333C11.7936 15 12.1667 14.6269 12.1667 14.1667C12.1667 13.7065 11.7936 13.3334 11.3333 13.3334H9.11111Z" fill="currentColor"/>
<path fill-rule="evenodd" clip-rule="evenodd" d="M10.9015 18.2511C10.9952 18.2745 11.0861 18.3081 11.1724 18.3513C13.1607 19.3454 15.5 17.8996 15.5 15.6767V4.16671C15.5 2.32576 14.0076 0.833374 12.1667 0.833374H3.83333C1.99238 0.833374 0.5 2.32576 0.5 4.16671V15.6767C0.5 17.8996 2.83933 19.3454 4.82757 18.3513C4.91395 18.3081 5.00479 18.2745 5.09848 18.2511L7.59577 17.6267C7.86117 17.5604 8.13883 17.5604 8.40423 17.6267L10.9015 18.2511ZM2.16667 4.16671C2.16667 3.24623 2.91286 2.50004 3.83333 2.50004H12.1667C13.0871 2.50004 13.8333 3.24623 13.8333 4.16671V15.6767C13.8333 16.6606 12.7979 17.3006 11.9178 16.8606C11.7226 16.763 11.5174 16.6871 11.3057 16.6342L8.80845 16.0098C8.27765 15.8771 7.72235 15.8771 7.19155 16.0098L4.69426 16.6342C4.48259 16.6871 4.27736 16.763 4.08221 16.8606C3.20214 17.3006 2.16667 16.6606 2.16667 15.6767V4.16671Z" fill="currentColor"/>
</svg>
