<svg width="21" height="21" viewBox="0 0 21 21" fill="none" xmlns="http://www.w3.org/2000/svg">
<path d="M14.3182 12.6678C14.1374 12.6678 13.9639 12.7396 13.8361 12.8675C13.7082 12.9954 13.6364 13.1688 13.6364 13.3496C13.6364 13.5304 13.7082 13.7039 13.8361 13.8317C13.9639 13.9596 14.1374 14.0314 14.3182 14.0314H16.5909C16.7717 14.0314 16.9452 13.9596 17.073 13.8317C17.2009 13.7039 17.2727 13.5304 17.2727 13.3496C17.2727 13.1688 17.2009 12.9954 17.073 12.8675C16.9452 12.7396 16.7717 12.6678 16.5909 12.6678H14.3182ZM1.19166e-06 3.34961C1.19166e-06 2.68657 0.263393 2.05068 0.732234 1.58184C1.20108 1.113 1.83696 0.849609 2.5 0.849609H14.7727C15.4358 0.849609 16.0717 1.113 16.5405 1.58184C17.0093 2.05068 17.2727 2.68657 17.2727 3.34961V4.49325C18.1357 4.5509 18.9444 4.93438 19.5352 5.56601C20.126 6.19764 20.4546 7.03021 20.4545 7.89506V17.4405C20.4545 18.3447 20.0954 19.2118 19.456 19.8511C18.8167 20.4904 17.9496 20.8496 17.0455 20.8496H3.41273C2.50858 20.8496 1.64147 20.4904 1.00214 19.8511C0.362809 19.2118 0.00363751 18.3447 0.00363751 17.4405V7.89506H1.19166e-06V3.57688H0.0100011C0.00326421 3.50131 -7.2418e-05 3.42548 1.19166e-06 3.34961ZM17.0455 5.84961H1.36727V17.4405C1.36727 17.983 1.58278 18.5033 1.96637 18.8869C2.34997 19.2705 2.87024 19.486 3.41273 19.486H17.0455C17.5879 19.486 18.1082 19.2705 18.4918 18.8869C18.8754 18.5033 19.0909 17.983 19.0909 17.4405V7.89506C19.0909 7.35258 18.8754 6.83231 18.4918 6.44871C18.1082 6.06511 17.5879 5.84961 17.0455 5.84961ZM15.9091 3.34961C15.9091 2.72234 15.4 2.21325 14.7727 2.21325H2.5C2.19862 2.21325 1.90958 2.33297 1.69647 2.54608C1.48336 2.75919 1.36364 3.04823 1.36364 3.34961C1.36364 3.65099 1.48336 3.94003 1.69647 4.15314C1.90958 4.36625 2.19862 4.48597 2.5 4.48597H15.9091V3.34961Z" fill="#353535"/>
</svg>
