<svg width="26" height="26" viewBox="0 0 26 26" fill="none" xmlns="http://www.w3.org/2000/svg">
<path d="M0.852251 4.12273H0.850001V4.27273V9.45455V9.60455H0.854365V20.9091C0.854365 22.0338 1.30117 23.1125 2.0965 23.9079C2.89182 24.7032 3.97052 25.15 5.09527 25.15H21.4545C22.5793 25.15 23.658 24.7032 24.4533 23.9079C25.2486 23.1125 25.6955 22.0338 25.6955 20.9091V9.45456C25.6956 8.37868 25.2867 7.34297 24.5518 6.55722C23.8489 5.80573 22.898 5.3366 21.8773 5.23438V4C21.8773 3.16457 21.5454 2.36335 20.9547 1.77261C20.3639 1.18187 19.5627 0.85 18.7273 0.85H4C3.16457 0.85 2.36335 1.18187 1.77262 1.77261C1.18189 2.36334 0.850021 3.16452 0.850001 3.99993C0.850001 3.9999 0.850001 3.99988 0.850001 3.99985L0.852251 4.12273ZM18.1818 15.0318C17.925 15.0318 17.6788 15.1338 17.4972 15.3154C17.3156 15.497 17.2136 15.7432 17.2136 16C17.2136 16.2568 17.3156 16.503 17.4972 16.6846C17.6788 16.8662 17.925 16.9682 18.1818 16.9682H20.9091C21.1659 16.9682 21.4121 16.8662 21.5937 16.6846C21.7753 16.503 21.8773 16.2568 21.8773 16C21.8773 15.7432 21.7753 15.497 21.5937 15.3154C21.4121 15.1338 21.1659 15.0318 20.9091 15.0318H18.1818ZM2.79073 7.15H21.4545C22.0658 7.15 22.6519 7.3928 23.0841 7.82499C23.5163 8.25717 23.7591 8.84334 23.7591 9.45455V20.9091C23.7591 21.5203 23.5163 22.1065 23.0841 22.5387C22.6519 22.9708 22.0658 23.2136 21.4545 23.2136H5.09527C4.48407 23.2136 3.8979 22.9708 3.46571 22.5387C3.03353 22.1065 2.79073 21.5203 2.79073 20.9091V7.15ZM18.7273 2.78636C19.3972 2.78636 19.9409 3.33012 19.9409 4V5.21364H4C3.67813 5.21364 3.36943 5.08577 3.14183 4.85817C2.91423 4.63057 2.78637 4.32188 2.78637 4C2.78637 3.67812 2.91423 3.36943 3.14183 3.14183C3.36943 2.91423 3.67813 2.78636 4 2.78636H18.7273Z" fill="#353535" stroke="#0F973D" stroke-width="0.3"/>
</svg>
