<svg width="34" height="34" viewBox="0 0 34 34" fill="none" xmlns="http://www.w3.org/2000/svg">
<path d="M30.8125 26.3832V31.875C30.8125 32.1568 30.7006 32.427 30.5013 32.6263C30.302 32.8256 30.0318 32.9375 29.75 32.9375C29.4682 32.9375 29.198 32.8256 28.9987 32.6263C28.7994 32.427 28.6875 32.1568 28.6875 31.875V26.3832C28.6826 25.0194 28.397 23.6713 27.8486 22.4226C27.3003 21.1739 26.5008 20.0514 25.5 19.125V26.8746C25.4998 27.1033 25.4259 27.3258 25.2891 27.509C25.1524 27.6923 24.9602 27.8266 24.7411 27.8919C24.522 27.9572 24.2876 27.9501 24.0729 27.8717C23.8581 27.7932 23.6744 27.6475 23.549 27.4563L22.1305 25.2902C22.1199 25.2742 22.1093 25.257 22.1 25.2397C21.8916 24.8718 21.5457 24.6017 21.1382 24.4889C20.7307 24.376 20.2951 24.4297 19.9272 24.638C19.5593 24.8464 19.2892 25.1924 19.1764 25.5998C19.0635 26.0073 19.1172 26.4429 19.3255 26.8109L22.2647 31.2986C22.419 31.5344 22.4733 31.8219 22.4156 32.0977C22.3579 32.3736 22.1931 32.6152 21.9572 32.7695C21.7214 32.9238 21.4339 32.9781 21.1581 32.9204C20.8823 32.8627 20.6406 32.6979 20.4863 32.462L17.5299 27.9464L17.498 27.8959C17.0404 27.1117 16.8855 26.1871 17.0626 25.2965C17.2397 24.4059 17.7365 23.6108 18.4594 23.0613C19.1822 22.5118 20.0812 22.2457 20.9867 22.3133C21.8922 22.3808 22.7417 22.7774 23.375 23.4281V8.5H21.25C20.9682 8.5 20.698 8.38806 20.4987 8.1888C20.2994 7.98954 20.1875 7.71929 20.1875 7.4375C20.1875 7.15571 20.2994 6.88546 20.4987 6.6862C20.698 6.48694 20.9682 6.375 21.25 6.375H23.375C23.9386 6.375 24.4791 6.59888 24.8776 6.9974C25.2761 7.39591 25.5 7.93641 25.5 8.5V16.4183C27.1308 17.5203 28.4674 19.0044 29.3933 20.7412C30.3193 22.4781 30.8065 24.415 30.8125 26.3832ZM11.6875 7.4375C11.6875 7.15571 11.5756 6.88546 11.3763 6.6862C11.177 6.48694 10.9068 6.375 10.625 6.375H8.5C7.93641 6.375 7.39591 6.59888 6.9974 6.9974C6.59888 7.39591 6.375 7.93641 6.375 8.5V26.5625C6.375 26.8443 6.48694 27.1145 6.6862 27.3138C6.88546 27.5131 7.15571 27.625 7.4375 27.625C7.71929 27.625 7.98954 27.5131 8.1888 27.3138C8.38806 27.1145 8.5 26.8443 8.5 26.5625V8.5H10.625C10.9068 8.5 11.177 8.38806 11.3763 8.1888C11.5756 7.98954 11.6875 7.71929 11.6875 7.4375ZM20.9392 13.0608C20.8405 12.962 20.7234 12.8836 20.5944 12.8302C20.4654 12.7767 20.3271 12.7492 20.1875 12.7492C20.0479 12.7492 19.9096 12.7767 19.7806 12.8302C19.6516 12.8836 19.5345 12.962 19.4358 13.0608L17 15.4979V2.125C17 1.84321 16.8881 1.57296 16.6888 1.3737C16.4895 1.17444 16.2193 1.0625 15.9375 1.0625C15.6557 1.0625 15.3855 1.17444 15.1862 1.3737C14.9869 1.57296 14.875 1.84321 14.875 2.125V15.4979L12.4392 13.0608C12.2399 12.8614 11.9694 12.7494 11.6875 12.7494C11.4056 12.7494 11.1351 12.8614 10.9358 13.0608C10.7364 13.2601 10.6244 13.5306 10.6244 13.8125C10.6244 14.0944 10.7364 14.3649 10.9358 14.5642L15.1858 18.8142C15.2845 18.913 15.4016 18.9914 15.5306 19.0448C15.6596 19.0983 15.7979 19.1258 15.9375 19.1258C16.0771 19.1258 16.2154 19.0983 16.3444 19.0448C16.4734 18.9914 16.5905 18.913 16.6892 18.8142L20.9392 14.5642C21.038 14.4655 21.1164 14.3484 21.1698 14.2194C21.2233 14.0904 21.2508 13.9521 21.2508 13.8125C21.2508 13.6729 21.2233 13.5346 21.1698 13.4056C21.1164 13.2766 21.038 13.1595 20.9392 13.0608Z" fill="#D88D02"/>
</svg>
