<svg width="24" height="23" viewBox="0 0 24 23" fill="none" xmlns="http://www.w3.org/2000/svg">
<path d="M15.9733 18.4911L0.893281 8.17858C-0.634893 7.13358 -0.115415 4.95774 1.79018 4.44607L17.8175 0.133568C18.157 0.0121181 18.5208 -0.0273069 18.8788 0.0185681C19.2367 0.0644431 19.5785 0.194293 19.8758 0.397343C20.1729 0.600393 20.417 0.870785 20.5876 1.18608C20.7583 1.50137 20.8507 1.85247 20.8571 2.21023L19.9072 16.8344C19.7946 18.5703 17.5015 19.5361 15.9733 18.4911Z" fill="#E9327C"/>
<path d="M11.1904 21.0369L2.30632 3.81274C2.10324 3.41871 2.01388 2.97672 2.04808 2.53552C2.08228 2.09433 2.23873 1.67107 2.50016 1.31243C2.7616 0.953791 3.11786 0.673691 3.52967 0.503024C3.94148 0.332357 4.39283 0.277757 4.83395 0.345249L21.2984 2.86441C21.6774 2.92242 22.0372 3.06879 22.3481 3.2915C22.659 3.51422 22.9121 3.8069 23.0866 4.14549C23.2612 4.48408 23.3522 4.85891 23.3521 5.23916C23.352 5.6194 23.2609 5.99421 23.0863 6.33274L15.5018 21.0377C15.2981 21.4306 14.9891 21.7603 14.6087 21.9904C14.2284 22.2205 13.7914 22.3422 13.3458 22.3421C12.9003 22.342 12.4633 22.2202 12.083 21.99C11.7028 21.7596 11.3939 21.4299 11.1904 21.0369Z" fill="#1DACE3"/>
<path d="M20.8167 2.79026L12.6093 1.53442L2.53241 4.24692L6.55458 12.0477L15.9733 18.4911C16.1811 18.6317 16.4096 18.7393 16.6508 18.8102L20.2283 11.8744L20.8167 2.79026Z" fill="#001A49"/>
</svg>
